<?xml version="1.0" encoding="UTF-8"?>
<svg id="Layer_1" data-name="Layer 1" xmlns="http://www.w3.org/2000/svg" viewBox="0 0 217.35 338.1">
  <defs>
    <style>
      .cls-1 {
        fill: #39b54a;
      }
    </style>
  </defs>
  <path class="cls-1" d="M159.72,322.92c-.98-.08-2.9.38-3.53-.52-.5-.71-1.58-9.93-1.8-11.69-3.73-29.98-2.24-61.6.47-91.65,3.14-34.74,14.43-68.64-10.81-98.18-29.39-34.41-76.63-24.35-84.54,21.19-3.2,18.41-4.88,39.89-6.63,58.66-.75,7.99-.48,17.68-1.66,25.32-.4,2.63-2.29,3.52-3.63,1,1.09-19.23,2.67-38.47,4.75-57.62,2.71-24.93,3.17-51.6,27.02-66.33,24.03-14.84,52.45-3.48,68.69,17.01,25.19,31.77,13.59,66.01,10.58,102.73-1.69,20.67-2.42,41.3-2.18,62.07l3.26,38.02ZM66.52,145.28c-7.2,42.4-11.16,92.43-9.33,135.28.53,12.39,1.02,32.06,4.36,43.66.78,2.71,3.79,3.88,3.78.05-.01-6.98-3.1-18.59-3.82-26.45-4.28-46.96.77-103.9,8.71-150.45,8.3-48.71,61.3-42.47,75.86-1.56,7.43,20.88-.93,51.95-3.1,74.32-1.17,12.06-1.79,24.05-2.14,36.17-.1,3.39-2.86,12.99,3.25,11.34l.42-.65c.02-21.62,2.17-43.14,4.46-64.6,2.72-25.53,9.82-45.73-5.24-69.35-8.63-13.54-24.66-24.98-41.34-24.16-20.41,1-32.7,17.59-35.89,36.41ZM115.55,197.55c1.44-10.8,4.51-22.96,5.25-33.6.31-4.46-.06-7.56-2.52-11.37-4.52-6.98-15.16-8.72-18.57-.01-2.2,5.63-3.62,21.38-4.65,28.26-6.85,45.82-11.28,94.76-2.08,140.56.6,2.99,2.53,13.13,3.71,15.17.53.92,1.35,1.29,2.36,1.45l1.27-.89c-15.67-59.44-7.41-121.31,2.45-180.96,1.95-6.76,9.13-7.45,12.81-1.42,1.77,2.91,1.75,5.37,1.51,8.73-1.04,14.38-5.11,30.73-6.93,45.41-4.44,35.9-5.82,72.92.72,108.65.81,4.42,2.49,14.72,4.32,18.34,1,1.97,2.01,2.39,4.05,1.59-12.82-45.87-9.91-93.23-3.69-139.92ZM77.24,150.07c-2.74,15.64-4.78,33.18-6.55,49.03-1.54,13.79-2.73,27.65-3.23,41.52,4.57,6.39,3.56-5.92,3.77-8.61,1.5-19.43,3.82-38.91,6.55-58.2,2.47-17.45,2.71-46.5,26.07-48.39,21.76-1.75,36.09,22.28,34.81,41.83-1.17,17.84-5.72,37.38-7.54,55.58-3.2,32.03-3.64,66.33,2.32,98.02.36,1.91,2.04,11.44,3.06,12.05.78.46,2.47.5,3.02-.25-.88-6.32-2.48-12.82-3.46-19.27-4.68-30.94-3.84-62.75-.62-93.79,1.75-16.94,5.9-35.16,7-51.81,1.51-22.94-16.59-49.38-41.67-45.98-14.65,1.98-21.25,15.23-23.53,28.26ZM73.18,78.03c-1.64.82-9.52,5.29-9.53,6.68l.78,1.39c2.27,1.74,6.74-2.44,8.93-3.56,44.87-22.96,90.86,11.47,104.7,54.49,8.8,27.36,1.54,64-.01,92.83-.68,12.64-.84,25.14-1.06,37.78-.02,1.28-.57,2.46-.58,3.73.99,9.26-.77,21.86.6,30.74.53,3.43,3.86,3.37,4.31.06.57-4.24-.51-8.79-.59-12.95-.48-26.16,1.3-53.21,2.73-79.33,1.91-34.89,8.17-60.64-10.16-92.9-16.18-28.47-45.07-48.61-78.98-45.34-6.6.64-15.2,3.43-21.14,6.38ZM61.7,61.11c1.21-.11,11.03-5.26,13.71-6.21,51.22-18.18,99.85,17.08,119.62,63.01,8.5,19.74,9.62,38.86,8.94,60.16-.05,1.53-1.58,6.06.3,6.68l2.11-.49c1.45-1.45.67-10.11.77-12.71.3-7.26.71-13.62.02-21.01-5.95-63.14-67.98-122.52-133.54-99.02-4.94,1.77-9.54,4.23-14.22,6.55-.58,1.55.63,3.2,2.27,3.05ZM151.09,45.85c-32.29-18.16-74.62-14.78-104.31,6.86C13.47,76.98-.48,119.88.01,159.97c5.02-.34,2.95-8.8,3.24-12.67,2.65-35.11,16.94-71.01,46.23-91.9,31.52-22.48,72.93-23.28,105.69-2.79,2.28.26,2.27-2.27,1.15-3.63-.42-.5-4.25-2.59-5.22-3.13ZM33.72,101.15c-.89,1.62-3.42,6.1-3.8,7.55-.54,2.09.76,2.65,2.63,2.08,1.48-.45,4.41-7.69,5.54-9.58,33.44-55.69,100.64-47.66,135.55,1.95,1.59,2.26,6.31,11.12,7.39,12.03,2.2,1.85,3.51-.33,2.83-2.83-.59-2.2-6.86-11.19-8.6-13.53-17.66-23.88-45.4-41.54-76.1-40.13-28.04,1.29-52.17,18.31-65.45,42.45ZM152.71,107.89c-38.92-44.97-102.94-23.21-108.94,34.61l-3.07,38.01c.6.84,3.12.87,3.45-.4,3.46-26.37.86-53.47,19.78-74.64,26.19-29.3,67.69-19.59,89.54,9.21.52.47,1.91.81,2.41.46,2.13-1.5-2.09-6-3.17-7.25ZM45.65,103.37c-7.17,11.37-11.67,24.62-13.26,38-2.94,24.74-3.36,52.15-4.3,77.17-.85,22.57-2.17,46.49-.58,69.06.09,1.28.5,6.49,1.9,6.6,3.48-1.02,1.42-5.06,1.34-7.68-.79-25.71-.17-50.5,1.1-76.1,1.09-22.01,1.8-45.62,4.33-67.43,1.48-12.74,5.37-25.49,12.18-36.38,1.17-1.87,7.51-9.52,7.69-10.13.22-.76.24-1.54-.43-2.08-.62-.42-2.16-.37-2.89-.14-1.06.33-6.15,7.65-7.07,9.12ZM37.5,76.34C5.17,112.81,9.89,158.46,8.62,203.92c1.44,16.19-1.83,35.5,0,51.31.39,3.37,2.92,2.02,3.27-1.09,1.72-15.2-1.29-33.59-.03-49.13,1.5-49.78-3.55-97.91,36.7-134.33,1.2-1.08,6.35-4.46,6.75-5.12.43-.7.43-1.48.03-2.2-.52-.73-1.82-.58-2.62-.4-2.66.59-12.97,10.83-15.23,13.38ZM125.8,205.1c1.73-13.45,8.12-39.58,4.39-51.49-4.29-13.68-21.07-26.34-34.4-15.75-5.52,4.38-6.54,9.45-7.75,15.99-2.49,13.49-3.66,27.31-5.87,40.86l1.47,2.25,2.15-.7c2.5-16.22,3.89-32.78,7.83-48.69,13.19-21.82,35.56-3.08,34.25,17.52-.78,12.2-4.26,26.47-5.85,38.93-1.23,9.67-2.16,19.39-3.24,29.08.18,2.18,1.62,2.79,3.65,2.35,1.28-10.09,2.06-20.26,3.36-30.35ZM107.96,160.28c-7.76,45.87-14.17,92.46-9.15,139.1.53,4.88,5.44,36.82,8.02,38.38.71.43,2.02.45,2.73,0l.44-.99c-16.3-57.26-7.96-117.85,1.67-175.55.3-1.02-1.47-3-2.34-2.86-.6.1-1.31,1.24-1.37,1.9ZM188.45,132.58c8.18,28.26,3.77,51.94,2.53,80.51-.81,18.68-1.21,37.47-2.16,56.11.41,2.78-.69,19.17.52,20.02.76.53,2.32.33,3.06-.26l.78-1.91c-.08-35.22,2.15-70.1,3.19-105.26.52-17.53,1.53-30.5-3.49-47.73-.74-2.54-2.83-9.7-4.1-11.54-.5-.73-.77-1.05-1.74-.81-3.36.86.73,8.54,1.4,10.86ZM178.88,72.56c19.75,22,33.13,47.22,34.82,77.41,1.34,24,.54,52.41,0,76.66-.03,1.19-1.35,4.1,1.24,3.41,1.25-.33,2.15-2.71,2-3.95-1.2-54.82,8.9-101.57-27.56-147.31-2.58-3.24-11.84-14.21-14.79-15.96-.71-.42-1.25-.76-2.12-.47-4.07,1.33,5.27,8.93,6.42,10.2ZM42.68,32.96c46.03-28.35,97.35-25.01,138.87,9.41,1.53,1.27,7.74,7.96,9.17,7.54,1.21-.36,1.17-3.56.05-4.35C153.37,7.63,94.87-.11,48.21,25.53c-2.7,1.49-13.22,7.69-14.73,9.54-.5.62-.91,1.77-.5,2.37,1.59,2.28,7.93-3.39,9.7-4.49ZM208.32,86.88c.02-2.36-7.64-12.33-9.54-14.79-26.49-34.27-63.25-54.93-107.78-49.08-3.93.52-11.65,1.78-15.17,3.18-1.57.62-2.63,1.85-.83,2.96,1.52.93,12.18-1.94,14.93-2.34,27.38-4.02,52.22,2.39,74.81,17.81,16.7,11.4,30.54,27.37,40.9,44.62,1.59.38,2.66-.81,2.68-2.35ZM21.08,275.19c-.7-36.3.69-72.41,2.67-108.48.67-12.29.5-23.72,2.97-35.88.53-2.63,3-9.24,2.95-11.1-.08-3.04-3.55-.86-4.57,1.92-6.93,18.9-5.54,54.93-6.17,75.84-.73,24.46-2.9,52.89-1.13,77.16.08,1.04.31,1.96.57,2.94,1.63.23,2.7-.78,2.72-2.4ZM80.96,204.5c-1.54,7.56-2.15,18.53-2.71,26.43-1.95,27.46-1.62,56.81,2.85,84.01.5,3.01,3.4,19.25,4.92,20.44.92.72,2.58.85,2.97-.4.26-.84-3.03-13.45-3.47-15.82-6.1-33.05-5.47-67.82-2.41-101.17.34-3.68,1.69-9.03,1.64-12.44-.01-.78-.17-1.4-.79-1.91l-2.15-.45c-.7.23-.73.72-.85,1.33ZM39.4,192.61c-1.56,15.12-1.69,30.73-2.14,45.89-.59,20.18-1.83,45.32,1.12,65.2.58,3.93,3.57,6.36,3.77,1.68.12-2.95-.94-7.66-1.12-10.8-1.43-24.64-1.29-49.26,0-73.91.43-8.28,2.8-20.96,2.18-28.63-.06-.77.13-1.57-.54-2.17-.63-.45-2.1-.05-2.59.45s-.6,1.58-.67,2.28ZM169.97,221.21l1.06-1.64c1.15-27.69,8.88-54.44-.51-81.46-.84-2.43-5.98-14.8-7.56-15.64-2.07-1.1-3.07.62-2.61,2.56.24.99,2.58,4.45,3.24,5.98,14.63,33.74,3.75,54.52,3.19,88.11-.01.82.22,1.57.56,2.29l2.63-.2ZM62.08,7.58c-1.28.45-6.42,2.16-7.04,2.67-1.63,1.37-.22,3.28,1.75,2.86C88.75.19,125.65-.55,157.54,12.97c2.89,1.22,13.26,8.37,10.13.93C136.66-2.48,95-4.11,62.08,7.58ZM165.69,233.12c-.78,5.08-.37,11.96-.58,17.22-.84,21-1,42.15,1.08,63.13l.53,1.08c1.55,1.21,3.33,1.02,3.74-1.05-1.89-20.35-2.16-41.1-1.59-61.57.16-5.71,1.79-13.96,1.13-19.43-.22-1.79-1.02-2.4-2.91-1.78-.88.29-1.27,1.55-1.4,2.39ZM121.38,253.02c.08-3.54,2.83-10.17-3.21-9.42-1.34,25.32-.71,51.15,4.03,76.09.66,3.5,2.12,12.08,3.47,14.87.92,1.9,1.91,1.27,3.83,1.3-6.62-27.08-8.77-54.93-8.12-82.84ZM203.52,193.79c-.27.91-.58,5.04-.66,6.35-1.09,17.84-.61,36.58-1.03,54.54-.09,3.6-1.23,7.65-.56,11.31.55,2.98,4.57.6,4.34-1.59l1.52-71.7-1.19-.83c-.85.39-2.13.96-2.41,1.92ZM46.97,246.59c-.95,19.59-.58,39.77,1.6,59.32.25,2.26,1.09,10.69,2.13,11.9,1.95,2.25,2.83,0,2.76-2.19-.34-10.99-3.4-23.22-3.3-34.5l-.05-44.99c-4.78-2.36-2.99,7.43-3.14,10.46ZM71.77,296.74c-1.15-12.29-.91-24.71-1.86-36.98-1.13-.98-2.69-.85-2.99.84-.65,3.57-.15,12.64-.02,16.75.29,9.19,1.13,18.83,2.25,27.97.78,6.4,2.26,19.09,4.39,24.75.7,1.87,1.57,2.88,3.58,1.97-1.71-11.7-4.23-23.43-5.34-35.29ZM54.49,38.83c1.66-.92,11.66-5.35,11.85-5.99l-.46-1.59c-.38-.43-.83-.71-1.41-.77-1.76-.17-9.87,4.17-11.95,5.31-14.63,7.99-29.09,21.27-37.96,35.42-.71,1.14-5.16,7.51-1.97,7.22l2.38-1.14c9.33-16.1,23.25-29.45,39.52-38.44ZM145.69,299.98c-.56-5.79-.06-12.81-1.1-18.33-.41-2.17-3.34-2.86-3.76-.55-.32,1.73-.09,5.6-.02,7.57.3,8.58,1.51,17.83,2.81,26.33.39,2.57,1.44,11.02,2.35,12.76.68,1.3,2.2,1.15,3.49,1.1-.94-9.66-2.83-19.21-3.77-28.87ZM2.72,225c1.36-12.09-.26-28.36-.03-41.04.07-4.17.94-8.52.59-12.95-.37-4.63-3.26-.79-3.26-.51v57.46c2.03.34,2.52-1.27,2.71-2.96Z"/>
</svg>