<?xml version="1.0" encoding="UTF-8"?>
<svg id="Layer_1" data-name="Layer 1" xmlns="http://www.w3.org/2000/svg" viewBox="0 0 217.35 338.1">
  <defs>
    <style>
      .cls-1 {
        fill: #231f20;
      }

      .cls-2 {
        fill: #6d6e71;
      }

      .cls-3 {
        fill: #010101;
      }
    </style>
  </defs>
  <path class="cls-2" d="M95.92.44c-15.45,1.72-28.91,4.9-39.09,9.15-1.94.81-2.48,2.53-1.02,3.12.48.16,4.74-1.02,9.58-2.64,14.92-4.95,26.81-6.89,43.18-6.89,19.92,0,36.08,3.5,52.66,11.36,6.62,3.12,7.86,3.23,7.22.54-.54-2.15-13.25-7.7-24.18-10.66-11.63-3.07-18.2-3.88-33.01-4.04-7.38-.11-14.32-.05-15.35.05Z"/>
  <path class="cls-2" d="M99.42,10.67c-22.29,1.78-41.84,8.4-59.61,20.3-6.46,4.31-7.7,5.82-5.22,6.57.86.27,2.15-.32,5.01-2.26,15.88-11.09,33.33-17.88,52.23-20.35,10.45-1.4,28.21-.92,37.48,1.08,21.16,4.42,38.71,13.73,56.75,30.1,4.31,3.88,5.71,4.25,5.71,1.51,0-1.29-.92-2.37-5.33-6.25-19.22-17.02-38.12-26.11-61.44-29.61-5.6-.86-20.41-1.45-25.58-1.08Z"/>
  <path class="cls-2" d="M100.23,21.98c-8.24.59-23.64,3.39-25.15,4.63-.48.38-.54.81-.11,1.62.7,1.29,1.83,1.18,10.18-.59,17.18-3.77,36.94-2.48,53.85,3.45,24.18,8.45,47.33,27.68,63.81,52.93,3.39,5.22,4.79,6.08,5.44,3.5.48-1.83-.48-3.66-6.19-11.47-19.28-26.49-43.67-44.37-69.41-50.83-9.42-2.37-23.64-3.77-32.41-3.23Z"/>
  <path class="cls-2" d="M57.37,33.44c-15.56,7.7-28.65,18.74-38.93,32.9-5.12,7.05-7,10.5-6.19,11.31.97.97,3.02-.32,4.42-2.69.65-1.18,2.8-4.25,4.74-6.78,10.66-14.22,22.51-24.02,38.34-31.82,3.88-1.94,7.11-3.82,7.11-4.15,0-.92-1.13-1.94-2.21-1.94-.48,0-3.77,1.4-7.27,3.18Z"/>
  <path class="cls-2" d="M91.88,34.63c-2.05.27-5.82.97-8.35,1.56C47.67,44.64,21.07,70.01,8.53,107.8c-4.47,13.46-7.16,28.32-7.75,42.91-.27,7.81-.22,8.78.54,8.78,1.78,0,2.53-2.15,2.53-7.27,0-12.87,3.23-30.1,8.35-44.96,10.23-29.4,31.45-52.61,57.61-62.95,11.68-4.58,21.86-6.52,34.73-6.52,16.75,0,31.28,3.72,45.45,11.63,5.55,3.12,6.95,3.39,7.22,1.45.22-1.62-1.24-2.8-7.32-5.92-10.12-5.28-19.87-8.45-31.07-10.12-5.92-.86-20.68-.97-26.92-.22Z"/>
  <path class="cls-2" d="M95.11,46.42c-10.5,1.18-20.3,4.04-29.72,8.72-5.71,2.8-6.78,4.04-4.52,5.22.81.43,2.21,0,6.73-2.1,24.18-11.42,50.18-11.2,73.82.65,13.25,6.62,26.28,17.28,36.18,29.56,10.34,12.71,19.28,30.21,22.99,44.91,2.91,11.58,3.18,14.43,3.34,33.11.05,17.23.11,17.5,1.18,17.66,2.1.32,2.32-1.29,2.42-17.55.11-17.07-.48-22.88-3.45-34.41-10.77-42.16-46.79-78.18-84.59-84.64-7.38-1.29-18.47-1.78-24.39-1.13Z"/>
  <path class="cls-1" d="M97.27,58.59c-9.85,1.02-19.87,3.77-27.57,7.7-15.45,7.75-28.86,21.43-37.1,37.91-2.64,5.22-2.69,6.46-.38,6.19,1.29-.16,1.88-.92,4.25-5.33,17.23-32.31,48.46-48.03,81.79-41.14,23.32,4.85,46.31,22.51,60.41,46.47,2.42,4.15,3.18,5.01,4.09,4.85,2.21-.32,1.78-2.64-1.51-8.02-13.25-21.75-32.63-37.8-54.17-44.85-3.07-1.02-7.92-2.21-10.72-2.69-5.33-.86-15.4-1.45-19.12-1.08Z"/>
  <path class="cls-2" d="M172.22,62.41c-1.08,1.02.16,2.96,5.55,8.67,7.38,7.92,10.82,12.17,16.15,20.14,9.69,14.54,15.67,29.72,18.63,47.28.86,5.06.97,10.34,1.13,48.19.16,36.45.27,42.54.92,42.7.43.11,1.18-.43,1.67-1.18.81-1.18.86-5.17.65-42.7-.22-43.88-.27-45.23-3.02-57.61-4.63-21.11-16.32-41.84-33.92-60.04-5.06-5.33-6.73-6.46-7.75-5.44Z"/>
  <path class="cls-2" d="M50.69,64.24c-3.55,2.58-11.58,10.5-15.24,15.02-13.62,16.91-22.45,39.79-24.61,63.81-.65,7.7-1.62,61.17-1.62,91.64,0,21.22,0,21.7,1.08,21.7.54,0,1.24-.43,1.51-.97.27-.48.65-17.18.81-36.99.54-55.41,1.29-75.44,3.34-86.58,2.64-14.27,8.72-30.15,15.62-40.81,5.6-8.72,15.4-19.44,21.97-24.18,1.83-1.29,2.53-2.15,2.42-2.96-.27-1.78-2.53-1.62-5.28.32Z"/>
  <path class="cls-1" d="M89.46,72.32c-6.41,1.35-14.59,4.58-20.19,7.97-4.85,2.96-5.65,3.88-4.63,5.12,1.08,1.29,2.42,1.08,5.55-.97,12.82-8.13,28.32-11.2,43.51-8.62,29.94,5.17,56.43,31.5,65.85,65.37,3.28,11.79,3.72,22.56,1.78,47.38-3.66,47.87-4.9,77.11-4.31,100.04.43,14.75.59,15.62,3.12,14.97l1.51-.38-.38-13.57c-.54-20.68.65-52.12,3.82-98.11,1.67-24.07,1.56-35.16-.32-44.64-7.48-37.75-36.83-69.03-70.32-74.84-6.84-1.24-18.47-1.08-24.98.27Z"/>
  <path class="cls-1" d="M95.11,83.95c-8.45,1.18-19.49,6.08-26.49,11.74-12.17,9.75-20.95,25.47-23.53,42-1.08,6.57-4.15,41.73-3.77,42.32.38.65,2.75.59,3.18,0,.16-.27,1.13-9.32,2.15-20.08s2.26-21.48,2.75-23.85c3.88-19.22,15.72-35.59,31.45-43.45,17.88-8.88,39.25-6.3,57.83,7,2.32,1.72,6.84,5.82,10.02,9.1,3.18,3.34,6.19,6.08,6.62,6.08,1.35,0,1.67-2.05.65-3.66-1.88-2.96-12.55-12.87-16.96-15.83-12.22-8.13-23.85-11.85-36.56-11.68-3.12.05-6.41.22-7.32.32Z"/>
  <path class="cls-1" d="M49.4,98.49c-7.59,10.07-13.3,23.75-15.62,37.42-1.62,9.32-4.85,63.86-5.82,97.62-.75,27.62-.11,57.88,1.24,59.23.65.65.97.7,1.72.16.81-.65.81-1.83.32-14.7-.59-14.48-.32-42.75.59-61.92,1.35-27.3,4.47-70.7,5.71-78.88,1.88-12.55,7.65-26.6,14.59-35.75,2.05-2.64,3.88-5.12,4.15-5.44.86-1.13-.05-2.42-1.78-2.42-1.4,0-2.1.65-5.12,4.68Z"/>
  <path class="cls-1" d="M95.65,96.71c-18.68,3.66-33.11,18.04-38.23,38.18-2.1,8.4-8.51,70.38-9.05,87.55-.11,3.82.05,4.58.86,5.12,1.72,1.08,2.37-.75,2.75-7.86,1.02-17.28,7-73.18,8.72-81.2,4.04-18.58,16.32-32.52,32.85-37.26,5.98-1.67,15.35-1.67,21.48.05,22.35,6.19,40.6,27.84,44.69,52.82,1.24,7.75,1.02,15.35-1.08,33.06-2.21,18.95-4.25,40.38-5.22,53.9-.86,12.38-.86,44.96,0,55.46.75,8.78,2.64,24.39,3.12,25.15.16.22,1.02.43,1.94.43h1.67l-.32-2.85c-2.69-23.85-3.28-35.59-2.85-56.65.43-22.78,1.56-37.75,5.49-74.04,2.75-24.88,2.37-33.55-1.94-46.36-3.5-10.5-9.48-20.19-17.23-27.95-11.36-11.42-24.39-17.55-38.23-18.09-3.5-.11-7.11.11-9.42.54Z"/>
  <path class="cls-1" d="M99.42,108.94c-8.02,1.24-13.84,4.31-20.25,10.66-4.04,3.98-5.01,5.38-7.38,10.28-1.51,3.12-3.12,7.22-3.61,9.15-1.29,5.6-6.95,51.48-8.62,70.27-1.56,17.66-1.94,24.39-2.26,43.35-.43,25.36.7,44.31,3.72,64.02,1.18,7.75,1.83,9.42,3.61,9.1,1.18-.27,1.08-2.58-.38-12.01-4.95-31.82-4.79-72.31.48-119,2.42-21.59,6.52-51.37,7.54-55.14,1.83-6.89,4.9-12.12,10.12-17.28,7-6.95,13.46-9.69,22.94-9.69,22.62,0,42.91,22.62,44.26,49.27.22,4.9-.05,8.4-1.67,20.46-4.2,31.5-5.92,49-6.84,69.3-.65,14.65-.48,15.72,2.1,15.4l1.45-.16.38-11.04c.65-19.33,2.53-39.74,6.68-72.42,1.62-12.38,1.88-16.15,1.67-21.27-.97-21.16-13.3-40.55-31.34-49.27-7.65-3.72-15.45-5.12-22.62-3.98Z"/>
  <path class="cls-2" d="M26.84,118.95c-.43.54-1.45,3.39-2.21,6.35-2.91,11.47-3.23,15.45-4.95,57.88-1.02,25.9-1.62,92.02-.81,93.15.43.65.75.65,1.51.22.92-.54.97-2.75,1.29-33.38.32-30.8.97-48.78,2.91-86.1.92-17.18,1.67-22.83,4.09-31.93.86-3.34,1.45-6.3,1.29-6.62-.54-.81-2.21-.54-3.12.43Z"/>
  <path class="cls-3" d="M97.53,122.45c-7.11,2.48-12.17,6.89-15.78,13.73-2.64,5.06-3.23,7.92-6.3,30.05-4.68,34.35-6.89,55.57-7.16,68.33-.11,5.55,0,6.46.81,6.95,1.72,1.13,2.15-.32,2.64-8.08,1.56-24.88,9.26-84.59,11.79-91.32,1.78-4.68,5.28-9.48,9.05-12.33,16.32-12.38,40.55,1.18,45.55,25.52,1.24,6.08,1.08,9.42-1.29,26.06-5.92,41.62-7.54,59.93-7.54,84.48,0,22.35,1.94,42.59,5.71,60.31,1.13,5.33,1.56,6.19,3.12,6.19.75,0,1.45-.22,1.62-.43s-.43-3.88-1.29-8.02c-4.31-21.48-6.14-48.68-4.9-73.93.97-19.98,2.32-32.95,6.84-65.96,1.99-14.48,2.42-18.68,2.15-22.62-.7-11.58-5.71-22.45-13.84-30.15-7.05-6.68-13.3-9.48-22.02-9.8-4.85-.16-6.14-.05-9.15,1.02Z"/>
  <path class="cls-2" d="M186.49,121.91c-.97.97-.81,2.1.75,6.19,1.67,4.52,4.31,14.32,5.06,19.01,1.67,10.55,1.67,15.62,0,47.44-2.1,40.98-2.69,57.18-2.85,77.21l-.11,16.69,1.24.16c2.53.38,2.8-.48,2.8-9.26,0-12.22.92-39.9,2.48-75.44,2.21-50.67,1.62-59.07-5.33-77.7-1.72-4.63-2.69-5.65-4.04-4.31Z"/>
  <path class="cls-1" d="M160.8,122.88c-.27.81.22,2.32,1.51,4.74,5.01,9.64,8.08,20.3,9.1,31.61.48,5.87.48,8.51-.27,16.42-3.45,36.24-4.09,43.72-3.82,44.42.38.97,2.58,1.08,3.34.11.32-.32.92-5.28,1.4-10.88.48-5.65,1.51-17.12,2.26-25.58,2.05-22.13,1.35-31.12-3.34-45.23-2.58-7.65-7.11-16.37-8.67-16.58-.81-.11-1.24.16-1.51.97Z"/>
  <path class="cls-3" d="M102,134.4c-4.9,1.62-8.99,5.33-11.25,10.23-1.4,3.07-1.83,5.65-5.6,31.55-2.32,16.15-2.53,18.15-1.83,19.22,1.99,3.12,2.69,1.35,4.74-12.76,5.12-35.32,5.22-35.75,8.88-39.95,5.06-5.71,13.08-6.68,19.92-2.37,6.41,4.09,11.36,13.14,11.36,20.78,0,1.72-1.08,10.34-2.42,19.17-4.63,30.96-7,52.01-6.14,53.63.27.54,1.13.97,1.83.97,1.51,0,1.45.32,2.69-12.38,1.02-10.55,2.75-23.37,5.71-43.61,2.42-16.37,2.53-19.82.48-25.85-3.66-10.82-12.76-18.74-22.18-19.17-2.37-.11-4.85.11-6.19.54Z"/>
  <path class="cls-3" d="M105.93,146.57c-1.78.54-4.42,2.91-5.44,4.85-.38.75-1.94,9.37-3.45,19.12-7.22,47.01-8.99,67.58-8.51,98,.43,24.66,2.32,42.05,6.62,59.66,1.72,7,2.1,8.08,3.23,8.56,2.58,1.18,2.64.05.54-8.56-2.26-9.42-4.15-20.73-5.55-33.01-.81-7.27-.97-13.25-.97-32.58,0-23.96.27-29.29,2.42-48.46,1.94-16.8,7.48-54.98,8.62-59.07,1.29-4.52,6.68-6.3,10.23-3.34.92.81,2.15,2.42,2.8,3.61,1.45,2.91,1.24,5.76-1.94,26.22-4.95,32.2-6.41,45.66-7.43,68.01-1.18,27.62,1.24,56.21,6.62,78.67,1.88,7.81,3.12,9.8,5.22,8.51.54-.38.38-1.51-.7-5.55-5.06-18.85-7.48-41.35-7.43-68.6,0-25.09,1.62-42,7.65-82.06,1.51-9.85,2.75-19.06,2.75-20.46,0-2.85-1.99-7.59-4.2-9.91-2.85-3.07-7.81-4.63-11.09-3.61Z"/>
  <path class="cls-3" d="M108.95,158.53c-.59.75-4.47,24.82-6.84,42.05-5.98,44.42-6.14,80.93-.48,113.99,1.4,8.02,4.2,19.92,5.12,21.65.54.97,2.85,1.35,3.34.54.16-.22-.54-3.5-1.56-7.32-8.18-31.71-9.42-75.01-3.45-122.28.65-4.74,2.42-17.34,4.09-27.95,2.75-18.15,2.85-19.38,2.05-20.35-1.08-1.13-1.51-1.18-2.26-.32Z"/>
  <path class="cls-2" d="M1.53,169.08c-.81.92-.92,3.61-.92,29.61s.11,28.65.81,28.65c.43,0,.97-.43,1.24-.97.75-1.4,1.08-57.83.32-58.1-.32-.11-.97.27-1.45.81Z"/>
  <path class="cls-1" d="M40.89,189.87c-.54.54-.92,2.53-1.13,6.35-.22,3.02-.75,11.95-1.29,19.82-1.67,26.33-1.02,83.94.97,89.28.27.65.86,1.35,1.35,1.56,1.72.65,1.94-.59,1.35-7.43-.32-3.66-.86-14.16-1.24-23.32-.7-18.15-.11-43.45,1.51-66.01,1.18-17.07,1.24-20.68.16-20.89-.48-.11-1.24.22-1.67.65Z"/>
  <path class="cls-2" d="M204.74,192.23c-1.24.97-1.24,1.13-1.94,24.61-.38,13.03-.81,29.51-.92,36.61-.16,12.71-.16,12.92.97,13.08,2.75.38,2.75.65,3.39-33.55.32-17.5.65-33.92.75-36.56.11-5.17-.27-5.87-2.26-4.2Z"/>
  <path class="cls-3" d="M81.65,203.22c-.75,2.42-2.75,24.61-3.5,39.2-1.56,30.64.81,62.84,6.25,85.56,1.4,6.03,1.94,7.05,3.55,7.05s1.67-1.13.22-6.78c-1.94-7.7-3.93-19.82-5.28-32.2-1.02-9.32-1.18-13.95-1.24-33.44,0-22.88.32-29.18,2.48-48.95,1.08-10.12.97-11.09-1.24-11.09-.54,0-1.08.32-1.24.65Z"/>
  <path class="cls-1" d="M166.51,231.22c-1.45,3.39-2.21,50.45-1.13,66.66,1.02,15.35,1.08,15.67,2.53,16.32.97.43,1.45.38,1.99-.22.65-.59.65-1.72.16-6.14-.59-5.6-.86-50.88-.38-67.85l.27-9.69-1.45-.16c-1.13-.16-1.62.11-1.99,1.08Z"/>
  <path class="cls-1" d="M48.1,235.58c-.97,1.13-1.4,27.51-.7,42.91.59,13.14,1.72,27.03,2.75,34.41.54,3.72,1.51,5.28,3.02,4.68.75-.27.86-.81.59-3.45-2.69-24.45-3.07-31.77-3.07-57.24,0-19.01-.11-21.43-.86-21.7-1.13-.43-1.08-.43-1.72.38Z"/>
  <path class="cls-3" d="M118.26,248.18c-.65,8.08.05,38.12,1.02,47.55,1.18,10.88,3.66,25.68,5.55,33.11l1.51,5.92,1.78.16q2.05.22.65-5.17c-4.79-18.85-7.38-45.55-6.89-71.02.32-15.35.27-15.78-2.05-15.78-1.13,0-1.24.32-1.56,5.22Z"/>
  <path class="cls-3" d="M67.54,259.43c-.54,1.45.27,26.22,1.18,35.75,1.62,16.8,4.63,33.98,6.25,35.59,1.13,1.13,2.64.81,2.64-.54,0-.54-.48-3.34-1.08-6.19-2.96-14-4.63-29.45-5.38-49.81-.32-7.86-.7-14.65-.81-15.02-.32-.97-2.42-.81-2.8.22Z"/>
  <path class="cls-3" d="M141.31,279.89c-1.29,3.34,3.45,45.07,5.33,47.44.32.38,1.13.7,1.83.7,1.62,0,1.62-.22.22-8.72-1.4-8.67-2.53-19.06-3.23-30.05-.32-4.85-.86-9.15-1.18-9.53-.81-.97-2.53-.86-2.96.16Z"/>
</svg>